<svg class="ml-4" width="30" height="30" viewBox="0 0 45 30" fill="none"
  xmlns="http://www.w3.org/2000/svg">
  <path d="M43.3378 14.8087C43.3378 12.4018 40.1956 10.2396 35.2578 8.85254C36.074 10.6883 36.5229 12.6873 36.5229 14.8087C36.5229 16.9301 36.074 18.9291 35.2578 20.7649C40.1956 19.337 43.3378 17.2156 43.3378 14.8087Z" fill="white"></path>
  <path d="M8.12077 8.85254C3.18301 10.2396 0 12.4018 0 14.8087C0 17.2156 3.14221 19.3778 8.07996 20.7649C7.2638 18.9291 6.81492 16.9301 6.81492 14.8087C6.85572 12.6873 7.30461 10.6883 8.12077 8.85254Z" fill="white"></path>
  <path d="M35.2581 8.85265C32.9729 3.63081 27.7495 0 21.6691 0C15.5887 0 10.3653 3.63081 8.08008 8.85265C11.7936 7.79197 16.5273 7.18003 21.6691 7.18003C26.8109 7.18003 31.5446 7.79197 35.2581 8.85265Z" fill="white"></path>
  <path d="M8.12109 20.7646C10.4063 25.9865 15.6297 29.6173 21.7101 29.6173C27.7905 29.6173 33.0139 25.9865 35.2991 20.7646C31.5856 21.8253 26.8519 22.4373 21.7101 22.4373C16.5683 22.4373 11.8346 21.8253 8.12109 20.7646Z" fill="white"></path>
</svg>