<svg width="207" height="204" viewBox="0 0 207 204" fill="none"
  xmlns="http://www.w3.org/2000/svg">
  <g clip-path="url(#clip0_9_12)">
    <path fill-rule="evenodd" clip-rule="evenodd" d="M0 101.81C0 45.58 46.24 0 103.27 0C160.3 0 206.54 45.58 206.54 101.81C206.54 158.04 160.3 203.62 103.27 203.62C46.24 203.62 0 158.04 0 101.81ZM191.29 101.81C191.29 149.71 151.882 188.54 103.27 188.54C54.6579 188.54 15.25 149.71 15.25 101.81C15.25 53.9103 54.6579 15.08 103.27 15.08C151.882 15.08 191.29 53.9103 191.29 101.81Z" fill="white"/>
    <path d="M112.95 73.06C111.5 76.17 110.63 79.53 110.2 82.92C109.56 87.98 109.88 93.11 110.52 98.17C110.76 100.11 111.06 102.06 111.7 103.91C112.46 106.11 113.67 108.13 115.78 109.19C116.96 109.78 118.36 110.11 119.6 109.68C121.04 109.17 121.96 107.78 122.68 106.44C127.52 97.4 128.29 86.5 125.98 76.51C125.49 74.38 124.85 72.26 123.72 70.39C122.85 68.96 121.16 66.78 119.34 66.62C116.12 66.33 114.07 70.69 112.96 73.06H112.95Z" fill="white"/>
    <path d="M145.03 70.47C143.89 72.02 143.15 73.84 142.58 75.68C139.85 84.55 140.98 94.16 143.13 103.19C143.44 104.5 143.78 105.83 144.44 107C145.1 108.17 146.13 109.2 147.42 109.58C149.36 110.15 151.49 109.12 152.78 107.56C154.07 106 154.68 104 155.2 102.05C156.57 96.87 157.49 91.54 157.48 86.18C157.48 80.82 156.51 75.42 154.24 70.56C153.39 68.73 151.96 66.75 149.65 67.03C147.87 67.25 146.03 69.11 145.03 70.47Z" fill="white"/>
    <path d="M152.67 132.46C152.37 131.77 151.8 131.24 151.2 130.79C149.49 129.52 147.42 128.85 145.35 128.36C133.93 125.63 121.4 127.95 111.72 134.58C107.22 137.66 103.18 141.89 101.93 147.2C101.65 148.4 101.73 150.23 103.01 150.88C103.63 151.2 104.39 151.05 105 150.73C108.43 148.94 111.52 147.07 115.25 145.96C117.67 145.24 120.16 144.76 122.67 144.54C124.91 144.35 127.21 144.45 129.39 145.04C130.98 145.47 133.36 146.87 133.95 148.65C134.07 149.02 134.12 149.41 134.07 149.81C134.06 149.9 134.04 150 134.02 150.09C130.56 150.69 127.19 151.65 123.87 152.83C121.78 153.57 119.71 154.38 117.64 155.2C116.12 155.8 114.54 156.45 113.43 157.66C112.32 158.87 111.82 160.8 112.73 162.16C113.48 163.29 114.98 163.72 116.33 163.58C117.68 163.44 118.92 162.82 120.15 162.25C127.72 158.69 135.78 156.17 144.04 154.77C144.88 154.63 145.83 154.43 146.28 153.71C146.68 153.08 146.54 152.21 146.11 151.59C145.68 150.98 145 150.58 144.32 150.27C143.47 149.89 142.61 149.66 141.74 149.53C141.74 149.03 141.72 148.53 141.69 148.04C141.57 146.06 142.03 144.03 142.69 142.16C143.27 140.5 143.83 138.74 144.93 137.34C145.91 136.09 147.43 135.16 149.01 135.31C149.62 135.37 150.22 135.58 150.83 135.54C152.31 135.44 153.28 133.79 152.69 132.45L152.67 132.46Z" fill="white"/>
    <path d="M79.09 99.84C76.95 96.24 73.91 93.28 71.79 89.75C68.58 84.42 65.5 79.22 63.5 73.3C62.89 71.49 61.23 67.64 58.62 68.85C56.14 70 55.94 73.9 55.75 76.18C55.24 82.25 54.05 88.27 52.23 94.08C50.13 100.76 47.18 107.19 45.81 114.05C44.44 120.91 44.86 128.54 49 134.19C53.21 139.92 60.97 142.65 67.93 141.21C74.89 139.76 80.8 134.39 83.29 127.73C83.46 127.27 83.62 126.81 83.76 126.35C86.63 117.04 83.91 107.97 79.1 99.85L79.09 99.84ZM77.36 122.7C76.26 126.98 73.59 130.95 69.71 133.06C63.31 136.54 55.58 133.65 53.08 126.84C50.27 119.19 54.1 111.57 56.65 104.44C57.6 101.78 58.42 99.08 59.11 96.34C59.98 92.87 60.58 89.34 61.26 85.84C62.11 88.09 63.22 90.24 64.58 92.23C65.06 92.93 65.56 93.61 66.07 94.29C68.41 97.43 70.62 100.65 72.81 103.9C74.08 105.79 75.35 107.68 76.28 109.76C78.08 113.79 78.47 118.43 77.38 122.7H77.36Z" fill="white"/>
  </g>
  <defs>
    <clipPath id="clip0_9_12">
      <rect width="206.54" height="203.61" fill="white"/>
    </clipPath>
  </defs>
</svg>
