<svg width="129" height="24" viewBox="0 0 24 24" fill="none"
  xmlns="http://www.w3.org/2000/svg">
  <path fill-rule="evenodd" clip-rule="evenodd" d="M14.5503 22.3949C14.5504 22.3949 14.5504 22.3949 14.5504 22.3949V23.5789H23.8887V20.2565H19.2772C22.0517 18.1816 23.8343 14.9562 23.8343 11.334C23.8343 5.0744 18.511 0 11.9443 0C5.37761 0 0.0542876 5.0744 0.0542876 11.334C0.0542876 14.9562 1.83687 18.1816 4.61145 20.2565H0V23.5789H9.33827V23.5254H9.33823V19.1134C5.93572 18.0563 3.47467 14.9849 3.47467 11.3608C3.47467 6.86216 7.26663 3.21532 11.9443 3.21532C16.6219 3.21532 20.4139 6.86216 20.4139 11.3608C20.4139 14.9849 17.9528 18.0563 14.5503 19.1134V22.3949Z" fill="white"/>
</svg>
