<?xml version="1.0" encoding="utf-8"?>
<!-- Generator: Adobe Illustrator 26.5.2, SVG Export Plug-In . SVG Version: 6.00 Build 0)  -->
<svg version="1.1" id="Layer_1"
  xmlns="http://www.w3.org/2000/svg"
  xmlns:xlink="http://www.w3.org/1999/xlink" x="0px" y="0px" viewBox="0 0 1920 1920" style="enable-background:new 0 0 1920 1920;" xml:space="preserve">
  <style type="text/css">
	.st0{fill:#FFFFFF;}
  </style>
  <g>
    <g>
      <polygon class="st0" points="1775.25,1390.86 1775.25,1373.71 1775.25,1373.71 		"/>
      <path class="st0" d="M1775.25,1390.86c-71.12,0.01-128.76,57.65-128.75,128.76v78.89h-80.45c-35.56,0-67.74,14.41-91.04,37.71
			c-23.29,23.29-37.71,55.49-37.71,91.04c0,71.11,57.64,128.75,128.75,128.75l301.05,0.01c20.39,0,36.91-16.53,36.91-36.91
			l-0.01-299.49C1904,1448.5,1846.35,1390.85,1775.25,1390.86z"/>
    </g>
    <path class="st0" d="M10.88,1819.09c0,20.38,16.53,36.91,36.91,36.91c0,0,0,0,0,0l301.05-0.01c71.11,0,128.75-57.64,128.75-128.75
		c0-35.55-14.42-67.75-37.71-91.04c-23.3-23.3-55.48-37.71-91.04-37.71h-80.45v-78.89c0.01-71.1-57.63-128.75-128.75-128.76
		c-71.11,0-128.75,57.64-128.75,128.75L10.88,1819.09z"/>
    <g>
      <path class="st0" d="M483.29,1475.6c-12.96-45.66-43.9-80.15-80.76-90l-61.09-16.32c-2.99,2.99-5.98,5.98-8.97,8.97
			c-18.26,18.26-36.52,36.52-54.78,54.78c15.81,25.11,24.99,54.79,24.99,86.59v44.59h46.15c38.93,0,75.75,13.58,105.12,38.45
			c16.98-16.98,33.95-33.95,50.93-50.93L483.29,1475.6z"/>
      <path class="st0" d="M1561.63,1368.26l-58.25,18c-31.08,9.6-57.34,36.2-72.03,72.95l-30.48,76.25c4.27,4.27,8.55,8.55,12.82,12.82
			c17.05,17.05,34.1,34.1,51.15,51.15c28.7-22.82,63.99-35.24,101.21-35.24h46.15v-44.59c0-33.64,10.24-64.94,27.77-90.93
			c-21.67-21.67-43.34-43.34-65.01-65.01C1570.58,1365.31,1566.14,1366.87,1561.63,1368.26z"/>
    </g>
    <path class="st0" d="M158.6,564.57c0-79.18,10.53-139.21,32.18-183.53c28.96-59.28,78.5-90.62,143.26-90.62h142.42
		c0.72-5.52,1.14-11.14,1.14-16.86c0-71.11-57.64-128.75-128.75-128.75l-301.05-0.01c-20.38,0-36.91,16.53-36.91,36.91l0.01,299.49
		c0,71.11,57.64,128.75,128.75,128.75c6.44,0,12.77-0.49,18.96-1.4V564.57z"/>
    <path class="st0" d="M1867.09,144.81l-301.05,0.01c-71.11,0-128.75,57.64-128.75,128.75c0,5.72,0.41,11.34,1.14,16.86h116.64
		c64.76,0,114.3,31.34,143.26,90.62c21.65,44.32,32.18,104.35,32.18,183.53v37.38c13.94,5.17,29.01,8,44.74,8
		c71.11,0,128.75-57.64,128.75-128.75l0.01-299.49C1904,161.33,1887.47,144.81,1867.09,144.81z"/>
    <path class="st0" d="M1555.07,328.92H334.03c-107.2,0-136.94,105.5-136.94,235.65v571.85c0,91.08,61.2,170.79,149.19,194.3
		l66.18,17.68c50.24,13.43,91.11,57.63,107.86,116.69l24.39,85.97c13.89,48.95,51.83,81.8,94.48,81.8v33.94
		c0,58.16,40.91,106.74,95.52,118.59v-137.86c0-11.37,9.22-20.59,20.59-20.59c11.37,0,20.59,9.22,20.59,20.59v140.65v0h153.18v0
		v-204.72c0-11.37,9.22-20.59,20.59-20.59s20.59,9.22,20.59,20.59v204.72v0h153.18v0v-140.65c0-11.37,9.22-20.59,20.59-20.59
		s20.59,9.22,20.59,20.59v137.64c54.12-12.22,94.55-60.56,94.55-118.37v-33.99c37.78-0.57,72.12-26.94,88.65-68.29l47.81-119.6
		c18.99-47.5,54.26-82.42,96.41-95.44l58.25-18c84.27-26.04,141.74-103.95,141.74-192.15V564.57
		C1692.01,434.43,1662.27,328.92,1555.07,328.92z M493.71,1181.88c-38.34,0-74.39-14.93-101.51-42.04
		c-27.11-27.11-42.05-63.16-42.04-101.51c0-38.35,14.94-74.4,42.05-101.51c27.11-27.11,63.15-42.04,101.49-42.04
		c0.01,0,0.01,0,0.02,0h77.61v-79.27c0-38.35,14.93-74.4,42.04-101.51c27.12-27.12,63.16-42.05,101.51-42.05
		c38.34,0,74.39,14.93,101.51,42.04c27.11,27.11,42.05,63.16,42.04,101.51l0.01,327.23c0,10.46-4.07,20.3-11.47,27.69
		c-7.4,7.4-17.23,11.47-27.69,11.47L493.71,1181.88z M1047.07,1459.01c-10.27,10.27-23.73,15.41-37.2,15.41
		c-13.46,0-26.92-5.13-37.2-15.41l-23.25-23.24l-22.79,22.79c-20.54,20.54-53.85,20.55-74.39,0c-20.54-20.54-20.54-53.85,0-74.39
		l97.19-97.19l97.64,97.64C1067.61,1405.16,1067.61,1438.47,1047.07,1459.01z M1495.3,1149.76c-27.11,27.11-63.16,42.04-101.5,42.04
		c-0.01,0,0,0-0.01,0l-325.57,0.01c-21.59,0-39.16-17.57-39.16-39.16l0.01-327.23c0-38.34,14.93-74.39,42.04-101.51
		c27.11-27.11,63.16-42.04,101.5-42.04c0.01,0,0,0,0.01,0c38.34,0,74.39,14.93,101.51,42.05c27.11,27.11,42.04,63.16,42.04,101.51
		v79.27h77.61c0,0,0.01,0,0.02,0c38.34,0,74.38,14.93,101.49,42.04c27.11,27.11,42.05,63.16,42.05,101.51
		C1537.34,1086.59,1522.41,1122.64,1495.3,1149.76z"/>
  </g>
</svg>
