<svg width="117" height="36" viewBox="0 0 36 36" fill="none"
  xmlns="http://www.w3.org/2000/svg">
  <path d="M20.3165 1.43756L18.4825 2.15638V3.9362L20.3165 4.65501V1.43756Z" fill="white"/>
  <path d="M23.9844 2.87292L22.1505 3.59174V5.37156L23.9844 6.08792V2.87292Z" fill="white"/>
  <path d="M12.3775 35.9877H9.30281V10.285L7.48114 9.62036V3.59163L9.31511 2.87282V6.08781L11.1491 5.37145V2.15646L12.0648 1.79459L12.9806 1.43764V4.65509L14.817 3.93627V0.718819L16.651 0V6.02873L25.8184 9.26834L23.8909 10.5115L16.651 8.16549V35.9877H13.5763" fill="white"/>
  <path d="M0 17.114L6.07304 13.7612V35.988H0V17.114Z" fill="white"/>
  <path d="M23.9426 13.6333L31.6625 9.41391V35.9881H23.9426V13.6333Z" fill="white"/>
  <path d="M34.6584 19.7674L39.5893 22.7166V35.9876H34.6584V19.7674Z" fill="white"/>
</svg>
