<svg viewBox="0 0 181 119" fill="none" width="35px"
  xmlns="http://www.w3.org/2000/svg">
  <path fill-rule="evenodd" clip-rule="evenodd" d="M135.465 116.719C136.586 116.532 137.794 116.432 138.928 116.338C140.235 116.23 141.443 116.13 142.305 115.914C143.512 115.914 145.523 115.914 146.73 115.512C147.175 115.289 148.236 115.19 149.435 115.077C150.404 114.986 151.464 114.887 152.363 114.707C153.973 114.707 156.387 114.305 156.789 113.902L157.996 113.5L157.191 112.695C156.789 112.293 155.582 111.488 154.375 111.488C151.961 110.281 149.547 108.672 149.547 107.465C149.547 106.258 151.961 104.648 155.18 103.844C157.191 103.039 158.801 102.637 159.203 102.637C160.008 102.637 164.836 100.625 168.457 99.0156C172.883 97.0039 174.895 94.9922 175.699 91.7734C177.711 84.9336 178.516 78.4961 178.516 64.4141C178.516 54.3555 178.516 53.1484 176.906 43.8945C176.791 43.0898 176.676 42.2195 176.561 41.3491C176.274 39.1732 175.987 36.9972 175.699 35.8477C175.336 31.8505 173.66 23.5871 173.042 20.5419C172.976 20.2153 172.922 19.9488 172.883 19.7539C170.469 12.1094 166.043 8.48828 155.984 5.26953C143.109 1.24609 131.441 0.84375 120.176 4.86719C106.094 9.29297 96.4375 14.9258 87.1836 22.5703C83.1602 26.1914 67.8711 41.8828 61.8359 49.125C49.7656 63.207 36.4883 74.4727 19.9922 84.1289C17.1758 85.7383 14.3594 87.3477 13.5547 87.75C11.9453 88.5547 9.93359 88.957 7.11719 88.1523L5.10547 87.3477V87.75C5.10547 88.1523 6.71484 88.957 9.12891 90.1641C10.7383 90.9688 11.543 91.3711 11.543 92.1758V92.9805L10.3359 93.3828C9.93359 93.7852 8.32422 94.1875 7.11719 94.1875C5.50781 94.1875 4.30078 94.5898 4.30078 94.9922V95.3945L7.11719 96.6016C14.3594 100.223 23.6133 102.637 35.6836 105.051C36.3206 105.178 37.018 105.316 37.7504 105.46C41.6445 106.228 46.5267 107.19 48.5586 107.867C48.6927 107.867 48.9609 107.912 49.3186 107.971C50.0339 108.091 51.1068 108.27 52.1797 108.27C52.7065 108.27 53.54 108.423 54.4794 108.596C55.6921 108.819 57.0812 109.074 58.2148 109.074C58.5545 109.142 58.9286 109.222 59.3294 109.307C61.3021 109.725 63.9209 110.281 66.2617 110.281C66.8903 110.386 67.6008 110.518 68.3434 110.656C70.4525 111.048 72.8207 111.488 74.3086 111.488C75.2742 111.73 77.1089 111.971 78.9436 112.213C80.1667 112.373 81.3898 112.534 82.3555 112.695C83.7696 112.695 85.4598 112.833 86.8601 112.948C87.8502 113.029 88.6953 113.098 89.1953 113.098C94.8281 114.305 102.875 115.109 109.715 115.512C113.738 115.512 118.566 115.914 120.578 116.316C127.82 117.121 129.832 117.121 135.465 116.719ZM146.73 99.0156V99.418V99.8203H147.938H149.145V99.418V99.0156H147.938H146.73ZM147.133 97.4062V97.8086V98.2109H147.938C148.34 98.2109 149.145 97.8086 149.145 97.4062C150.352 95.3945 150.352 94.5898 150.352 93.7852L149.949 93.3828H149.145H148.742V93.7852C148.742 94.1875 147.938 94.9922 147.133 95.3945L145.926 96.1992L146.328 96.6016V97.0039L147.133 96.6016H147.938V97.0039V97.4062H147.535H147.133ZM147.133 91.7734C146.999 91.9075 146.82 92.0417 146.641 92.1758C146.283 92.444 145.926 92.7122 145.926 92.9805V93.3828H146.73C147.133 93.3828 147.938 92.9805 148.34 92.5781L149.547 91.7734L149.145 91.3711H148.742L147.133 91.7734ZM127.418 12.9141C127.82 15.3281 129.027 16.1328 132.648 17.3398C135.867 18.5469 138.281 18.9492 143.109 17.7422C146.73 17.3398 149.145 16.1328 150.754 14.9258C151.961 13.7188 152.363 11.3047 151.961 9.69531C151.156 6.07422 145.926 4.46484 138.281 5.67188C130.234 6.47656 127.016 8.89062 127.418 12.9141Z" fill="white"></path>
  <path d="M131.844 10.9023C132.246 10.9023 132.648 10.9023 132.648 10.5C133.051 9.69531 138.684 8.89062 141.902 8.89062C145.523 8.89062 147.535 9.29297 149.145 10.5L150.352 11.3047H150.754V10.9023L150.352 10.0977C149.145 8.48828 148.34 8.08594 144.719 7.68359C141.098 7.28125 135.062 7.68359 132.648 8.89062C131.039 9.29297 129.027 11.3047 129.027 12.1094V12.5117L130.234 11.707L131.844 10.9023Z" fill="white"></path>
  <path fill-rule="evenodd" clip-rule="evenodd" d="M122.188 117.926C120.176 117.926 114.945 117.523 110.52 117.121C101.668 116.719 94.8281 115.914 89.1953 114.707C88.1334 114.707 86.8473 114.595 85.6328 114.489C84.5466 114.394 83.5177 114.305 82.7578 114.305C81.1484 114.305 77.9297 113.902 75.918 113.5C74.0738 113.5 71.0556 113.03 68.4777 112.629C67.6811 112.505 66.9266 112.388 66.2617 112.293C65.5576 112.192 64.8032 112.092 64.0488 111.991C61.7856 111.689 59.5225 111.388 58.6172 111.086C57.8573 111.086 56.8284 110.907 55.7422 110.717C54.5277 110.505 53.2416 110.281 52.1797 110.281C50.168 109.879 46.9492 109.074 45.3398 108.672C44.3207 108.672 42.4949 108.349 40.5775 108.01C39.467 107.814 38.3259 107.612 37.293 107.465C26.832 105.453 16.7734 102.637 10.3359 100.223C5.50781 98.2109 0.277344 94.9922 0.277344 94.1875V93.3828L3.89844 92.9805L7.51953 92.1758V91.7734V91.3711H6.71484C5.50781 90.9688 1.88672 86.543 1.88672 85.7383V84.9336L3.49609 85.3359C4.30078 85.3359 5.91016 85.7383 7.51953 86.1406C8.72656 86.543 10.3359 86.543 11.543 86.543C14.3594 86.1406 27.2344 78.0938 36.4883 71.2539C43.3281 66.0234 53.7891 55.9648 61.4336 47.1133C69.8828 37.457 84.7695 22.168 90.4023 18.1445C99.6562 11.3047 107.703 7.28125 121.383 2.85547C126.613 0.84375 129.43 0.84375 137.074 0.84375C145.121 0.84375 147.938 1.24609 156.789 4.0625C170.871 8.48828 173.688 12.9141 176.906 34.2383C177.309 37.457 178.113 41.4805 178.516 43.4922C179.723 51.5391 180.125 57.9766 180.125 69.6445C179.723 81.3125 179.32 84.5312 178.113 89.7617C176.906 94.1875 176.102 95.7969 174.09 97.4062C173.309 98.1868 172.907 98.5888 172.746 99.0712C172.575 99.5835 172.676 100.186 172.883 101.43C173.09 102.673 173.191 103.276 173.019 103.788C172.858 104.271 172.456 104.673 171.676 105.453C169.664 107.062 167.25 107.867 165.641 107.062C165.238 107.062 164.434 105.855 164.031 105.051C163.629 104.246 163.227 103.441 162.824 103.441L158.801 104.648C156.387 105.051 153.973 105.855 153.168 106.258L151.559 107.062L151.961 107.465C151.961 108.27 154.375 109.477 156.387 110.281C157.191 110.281 158.398 111.086 158.801 111.488L160.008 112.695L159.605 113.5C158.801 114.707 156.789 115.512 153.57 115.914C151.961 115.914 148.34 116.316 145.926 116.719C134.258 118.328 129.43 118.73 122.188 117.926ZM135.465 116.719C136.586 116.532 137.794 116.432 138.928 116.338C140.235 116.23 141.443 116.13 142.305 115.914C143.512 115.914 145.523 115.914 146.73 115.512C147.175 115.289 148.236 115.19 149.435 115.077C150.404 114.986 151.464 114.887 152.363 114.707C153.973 114.707 156.387 114.305 156.789 113.902L157.996 113.5L157.191 112.695C156.789 112.293 155.582 111.488 154.375 111.488C151.961 110.281 149.547 108.672 149.547 107.465C149.547 106.258 151.961 104.648 155.18 103.844C157.191 103.039 158.801 102.637 159.203 102.637C160.008 102.637 164.836 100.625 168.457 99.0156C172.883 97.0039 174.895 94.9922 175.699 91.7734C177.711 84.9336 178.516 78.4961 178.516 64.4141C178.516 54.3555 178.516 53.1484 176.906 43.8945C176.791 43.0898 176.676 42.2195 176.561 41.3491C176.274 39.1732 175.987 36.9972 175.699 35.8477C175.336 31.8505 173.66 23.5871 173.042 20.5419L172.883 19.7539C170.469 12.1094 166.043 8.48828 155.984 5.26953C143.109 1.24609 131.441 0.84375 120.176 4.86719C106.094 9.29297 96.4375 14.9258 87.1836 22.5703C83.1602 26.1914 67.8711 41.8828 61.8359 49.125C49.7656 63.207 36.4883 74.4727 19.9922 84.1289C17.1758 85.7383 14.3594 87.3477 13.5547 87.75C11.9453 88.5547 9.93359 88.957 7.11719 88.1523L5.10547 87.3477V87.75C5.10547 88.1523 6.71484 88.957 9.12891 90.1641C10.7383 90.9688 11.543 91.3711 11.543 92.1758V92.9805L10.3359 93.3828C9.93359 93.7852 8.32422 94.1875 7.11719 94.1875C5.50781 94.1875 4.30078 94.5898 4.30078 94.9922V95.3945L7.11719 96.6016C14.3594 100.223 23.6133 102.637 35.6836 105.051C36.3206 105.178 37.018 105.316 37.7504 105.46C41.6445 106.228 46.5267 107.19 48.5586 107.867C48.6927 107.867 48.9609 107.912 49.3186 107.971C50.0339 108.091 51.1068 108.27 52.1797 108.27C52.7065 108.27 53.54 108.423 54.4794 108.596C55.6921 108.819 57.0812 109.074 58.2148 109.074C58.5545 109.142 58.9286 109.222 59.3294 109.307C61.3021 109.725 63.9209 110.281 66.2617 110.281C66.8903 110.386 67.6008 110.518 68.3434 110.656C70.4525 111.048 72.8207 111.488 74.3086 111.488C75.2742 111.73 77.1089 111.971 78.9436 112.213C80.1667 112.373 81.3898 112.534 82.3555 112.695C83.7696 112.695 85.4598 112.833 86.8601 112.948C87.8502 113.029 88.6953 113.098 89.1953 113.098C94.8281 114.305 102.875 115.109 109.715 115.512C113.738 115.512 118.566 115.914 120.578 116.316C127.82 117.121 129.832 117.121 135.465 116.719ZM169.664 105.051C170.871 104.246 170.871 103.844 170.871 102.234V100.223H170.469L167.652 101.43C166.043 102.234 164.836 103.039 164.836 103.039L165.641 104.648C166.848 106.258 167.652 106.258 169.664 105.051Z" fill="white"></path>
</svg>