<?xml version="1.0" encoding="UTF-8"?>
<svg id="Layer_1"
  xmlns="http://www.w3.org/2000/svg" viewBox="0 0 206.54 203.61">
  <defs>
    <style>.cls-1{fill:#ffd110;}.cls-2{fill:#196fd2;}.cls-3{fill:#58c5e4;}</style>
  </defs>
  <g>
    <path class="cls-2" d="M103.27,0C46.24,0,0,45.58,0,101.81s46.24,101.81,103.27,101.81,103.27-45.58,103.27-101.81S160.3,0,103.27,0Z"/>
    <ellipse class="cls-1" cx="103.27" cy="101.81" rx="88.02" ry="86.73"/>
  </g>
  <path class="cls-2" d="M112.95,73.06c-1.45,3.11-2.32,6.47-2.75,9.86-.64,5.06-.32,10.19,.32,15.25,.24,1.94,.54,3.89,1.18,5.74,.76,2.2,1.97,4.22,4.08,5.28,1.18,.59,2.58,.92,3.82,.49,1.44-.51,2.36-1.9,3.08-3.24,4.84-9.04,5.61-19.94,3.3-29.93-.49-2.13-1.13-4.25-2.26-6.12-.87-1.43-2.56-3.61-4.38-3.77-3.22-.29-5.27,4.07-6.38,6.44Z"/>
  <path class="cls-2" d="M145.03,70.47c-1.14,1.55-1.88,3.37-2.45,5.21-2.73,8.87-1.6,18.48,.55,27.51,.31,1.31,.65,2.64,1.31,3.81s1.69,2.2,2.98,2.58c1.94,.57,4.07-.46,5.36-2.02s1.9-3.56,2.42-5.51c1.37-5.18,2.29-10.51,2.28-15.87,0-5.36-.97-10.76-3.24-15.62-.85-1.83-2.28-3.81-4.59-3.53-1.78,.22-3.62,2.08-4.62,3.44Z"/>
  <path class="cls-2" d="M152.67,132.46c-.3-.69-.87-1.22-1.47-1.67-1.71-1.27-3.78-1.94-5.85-2.43-11.42-2.73-23.95-.41-33.63,6.22-4.5,3.08-8.54,7.31-9.79,12.62-.28,1.2-.2,3.03,1.08,3.68,.62,.32,1.38,.17,1.99-.15,3.43-1.79,6.52-3.66,10.25-4.77,2.42-.72,4.91-1.2,7.42-1.42,2.24-.19,4.54-.09,6.72,.5,1.59,.43,3.97,1.83,4.56,3.61,.12,.37,.17,.76,.12,1.16-.01,.09-.03,.19-.05,.28-3.46,.6-6.83,1.56-10.15,2.74-2.09,.74-4.16,1.55-6.23,2.37-1.52,.6-3.1,1.25-4.21,2.46-1.11,1.21-1.61,3.14-.7,4.5,.75,1.13,2.25,1.56,3.6,1.42,1.35-.14,2.59-.76,3.82-1.33,7.57-3.56,15.63-6.08,23.89-7.48,.84-.14,1.79-.34,2.24-1.06,.4-.63,.26-1.5-.17-2.12-.43-.61-1.11-1.01-1.79-1.32-.85-.38-1.71-.61-2.58-.74,0-.5-.02-1-.05-1.49-.12-1.98,.34-4.01,1-5.88,.58-1.66,1.14-3.42,2.24-4.82,.98-1.25,2.5-2.18,4.08-2.03,.61,.06,1.21,.27,1.82,.23,1.48-.1,2.45-1.75,1.86-3.09Z"/>
  <g>
    <path class="cls-3" d="M64.17,138.46c-5.03,0-9.87-2.34-12.64-6.12-2.18-2.97-3.29-6.82-3.29-11.44,0-2,.22-4.1,.64-6.23,.84-4.22,2.31-8.26,3.87-12.55,.84-2.3,1.71-4.69,2.46-7.1,1.9-6.03,3.13-12.28,3.66-18.57l.03-.34c.18-2.24,.45-3.35,.68-3.9,.27,.42,.62,1.1,.95,2.1,2.04,6.02,4.96,11.08,8.58,17.06,1.15,1.9,2.5,3.6,3.8,5.25,1.29,1.63,2.51,3.16,3.49,4.82,3.58,6.04,5.4,11.8,5.4,17.11,0,2.33-.35,4.64-1.04,6.87-.13,.41-.26,.82-.41,1.21-2.16,5.79-7.29,10.31-13.06,11.51-1.01,.21-2.06,.32-3.12,.32h0Z"/>
    <path class="cls-2" d="M79.09,99.84c-2.14-3.6-5.18-6.56-7.3-10.09-3.21-5.33-6.29-10.53-8.29-16.45-.61-1.81-2.27-5.66-4.88-4.45-2.48,1.15-2.68,5.05-2.87,7.33-.51,6.07-1.7,12.09-3.52,17.9-2.1,6.68-5.05,13.11-6.42,19.97-1.37,6.86-.95,14.49,3.19,20.14,4.21,5.73,11.97,8.46,18.93,7.02,6.96-1.45,12.87-6.82,15.36-13.48,.17-.46,.33-.92,.47-1.38,2.87-9.31,.15-18.38-4.66-26.5Zm-1.73,22.86c-1.1,4.28-3.77,8.25-7.65,10.36-6.4,3.48-14.13,.59-16.63-6.22-2.81-7.65,1.02-15.27,3.57-22.4,.95-2.66,1.77-5.36,2.46-8.1,.87-3.47,1.47-7,2.15-10.5,.85,2.25,1.96,4.4,3.32,6.39,.48,.7,.98,1.38,1.49,2.06,2.34,3.14,4.55,6.36,6.74,9.61,1.27,1.89,2.54,3.78,3.47,5.86,1.8,4.03,2.19,8.67,1.1,12.94Z"/>
  </g>
</svg>
